<svg width="24" height="21" viewBox="0 0 24 21" fill="none" xmlns="http://www.w3.org/2000/svg">
<path d="M22 0H2C0.91 0.0466667 0.04 1.06167 0 2.33333V18.6667C0.04 19.9383 0.91 20.9533 2 21H22C23.09 20.9533 23.96 19.9383 24 18.6667V2.33333C23.9816 1.72133 23.765 1.14023 23.3938 0.707216C23.0227 0.274199 22.5246 0.021473 22 0ZM22 18.6667H2V2.33333H22V18.6667ZM14 16.3333V14.875C14 12.9383 10.66 11.9583 9 11.9583C7.34 11.9583 4 12.9383 4 14.875V16.3333H14ZM9 4.66667C8.33696 4.66667 7.70107 4.97396 7.23223 5.52094C6.76339 6.06792 6.5 6.80978 6.5 7.58333C6.5 7.96636 6.56466 8.34563 6.6903 8.69949C6.81594 9.05336 7.00009 9.37489 7.23223 9.64573C7.70107 10.1927 8.33696 10.5 9 10.5C9.3283 10.5 9.65339 10.4246 9.95671 10.278C10.26 10.1314 10.5356 9.91657 10.7678 9.64573C10.9999 9.37489 11.1841 9.05336 11.3097 8.69949C11.4353 8.34563 11.5 7.96636 11.5 7.58333C11.5 7.20031 11.4353 6.82104 11.3097 6.46717C11.1841 6.11331 10.9999 5.79178 10.7678 5.52094C10.5356 5.2501 10.26 5.03526 9.95671 4.88868C9.65339 4.74211 9.3283 4.66667 9 4.66667ZM14 4.66667V5.83333H20V4.66667H14ZM14 7V8.16667H20V7H14ZM14 9.33333V10.5H18V9.33333H14Z" fill="#DED27C"/>
</svg>
